<svg width="48" height="48" viewBox="0 0 48 48" fill="none" xmlns="http://www.w3.org/2000/svg">
<path d="M28 17.6C28 17.4 28.0667 17.2083 28.2 17.025C28.3333 16.8417 28.4833 16.7167 28.65 16.65C29.65 16.2833 30.675 16 31.725 15.8C32.775 15.6 33.8667 15.5 35 15.5C35.7333 15.5 36.45 15.5417 37.15 15.625C37.85 15.7083 38.5333 15.8333 39.2 16C39.4 16.0667 39.5833 16.1917 39.75 16.375C39.9167 16.5583 40 16.7667 40 17C40 17.3667 39.875 17.65 39.625 17.85C39.375 18.05 39.0667 18.1 38.7 18C38.1333 17.8333 37.5417 17.7083 36.925 17.625C36.3083 17.5417 35.6667 17.5 35 17.5C34.0333 17.5 33.1 17.5917 32.2 17.775C31.3 17.9583 30.4167 18.2333 29.55 18.6C29.0833 18.7667 28.7083 18.7583 28.425 18.575C28.1417 18.3917 28 18.0667 28 17.6ZM28 28.6C28 28.4 28.0667 28.2 28.2 28C28.3333 27.8 28.4833 27.6667 28.65 27.6C29.65 27.2333 30.675 26.9583 31.725 26.775C32.775 26.5917 33.8667 26.5 35 26.5C35.7333 26.5 36.45 26.5417 37.15 26.625C37.85 26.7083 38.5333 26.8333 39.2 27C39.4 27.0667 39.5833 27.1917 39.75 27.375C39.9167 27.5583 40 27.7667 40 28C40 28.3667 39.875 28.65 39.625 28.85C39.375 29.05 39.0667 29.1 38.7 29C38.1333 28.8333 37.5417 28.7083 36.925 28.625C36.3083 28.5417 35.6667 28.5 35 28.5C34.0333 28.5 33.1 28.5833 32.2 28.75C31.3 28.9167 30.4167 29.1833 29.55 29.55C29.0833 29.7167 28.7083 29.7167 28.425 29.55C28.1417 29.3833 28 29.0667 28 28.6ZM28 23.1C28 22.9 28.0667 22.7083 28.2 22.525C28.3333 22.3417 28.4833 22.2167 28.65 22.15C29.65 21.7833 30.675 21.5 31.725 21.3C32.775 21.1 33.8667 21 35 21C35.7333 21 36.45 21.0417 37.15 21.125C37.85 21.2083 38.5333 21.3333 39.2 21.5C39.4 21.5667 39.5833 21.6917 39.75 21.875C39.9167 22.0583 40 22.2667 40 22.5C40 22.8667 39.875 23.15 39.625 23.35C39.375 23.55 39.0667 23.6 38.7 23.5C38.1333 23.3333 37.5417 23.2083 36.925 23.125C36.3083 23.0417 35.6667 23 35 23C34.0333 23 33.1 23.0917 32.2 23.275C31.3 23.4583 30.4167 23.7333 29.55 24.1C29.0833 24.2667 28.7083 24.2583 28.425 24.075C28.1417 23.8917 28 23.5667 28 23.1ZM25.6 35.5C27.2667 34.6667 28.9 34.0417 30.5 33.625C32.1 33.2083 33.8 33 35.6 33C36.8667 33 38.175 33.1 39.525 33.3C40.875 33.5 42.0333 33.7667 43 34.1V12.65C41.8667 12.0833 40.6667 11.6667 39.4 11.4C38.1333 11.1333 36.8667 11 35.6 11C33.8 11 32.0583 11.275 30.375 11.825C28.6917 12.375 27.1 13.15 25.6 14.15V35.5ZM24.1 39.45C23.8333 39.45 23.5917 39.425 23.375 39.375C23.1583 39.325 22.9667 39.2333 22.8 39.1C21.2333 38.1333 19.5667 37.3833 17.8 36.85C16.0333 36.3167 14.2333 36.05 12.4 36.05C11.1667 36.05 9.96667 36.2 8.8 36.5C7.63333 36.8 6.46667 37.1667 5.3 37.6C4.53333 37.9667 3.79167 37.9167 3.075 37.45C2.35833 36.9833 2 36.3167 2 35.45V12.3C2 11.8 2.11667 11.3417 2.35 10.925C2.58333 10.5083 2.93333 10.1833 3.4 9.95C4.8 9.28333 6.25833 8.79167 7.775 8.475C9.29167 8.15833 10.8333 8 12.4 8C14.5 8 16.5417 8.28333 18.525 8.85C20.5083 9.41667 22.3667 10.2833 24.1 11.45C25.8 10.2833 27.625 9.41667 29.575 8.85C31.525 8.28333 33.5333 8 35.6 8C37.1667 8 38.7 8.15833 40.2 8.475C41.7 8.79167 43.15 9.28333 44.55 9.95C45.0167 10.1833 45.375 10.5083 45.625 10.925C45.875 11.3417 46 11.8 46 12.3V35.45C46 36.3833 45.625 37.0917 44.875 37.575C44.125 38.0583 43.3833 38.0667 42.65 37.6C41.5167 37.1333 40.3667 36.7583 39.2 36.475C38.0333 36.1917 36.8333 36.05 35.6 36.05C33.8 36.05 32.0333 36.3167 30.3 36.85C28.5667 37.3833 26.9333 38.1333 25.4 39.1C25.2333 39.2333 25.0417 39.325 24.825 39.375C24.6083 39.425 24.3667 39.45 24.1 39.45Z" fill="url(#paint0_linear_5_4)"/>
<defs>
<linearGradient id="paint0_linear_5_4" x1="24" y1="8" x2="24" y2="39.45" gradientUnits="userSpaceOnUse">
<stop stop-color="#F3EB5A"/>
<stop offset="1" stop-color="#F4F690"/>
</linearGradient>
</defs>
</svg>
