<svg width="99" height="32" viewBox="0 0 99 32" fill="none" xmlns="http://www.w3.org/2000/svg">
<path d="M15.48 31V19.12H7.16V31H0.6V3.28H7.16V14H15.48V3.28H22.04V31H15.48ZM44.0006 24.84C44.0006 25.64 44.1073 26.2267 44.3206 26.6C44.5606 26.9733 44.934 27.2533 45.4406 27.44L44.1206 31.56C42.814 31.4533 41.7473 31.1733 40.9206 30.72C40.094 30.24 39.454 29.4933 39.0006 28.48C37.614 30.6133 35.4806 31.68 32.6006 31.68C30.494 31.68 28.814 31.0667 27.5606 29.84C26.3073 28.6133 25.6806 27.0133 25.6806 25.04C25.6806 22.72 26.534 20.9467 28.2406 19.72C29.9473 18.4933 32.414 17.88 35.6406 17.88H37.8006V16.96C37.8006 15.7067 37.534 14.8533 37.0006 14.4C36.4673 13.92 35.534 13.68 34.2006 13.68C33.5073 13.68 32.6673 13.7867 31.6806 14C30.694 14.1867 29.6806 14.4533 28.6406 14.8L27.2006 10.64C28.534 10.1333 29.894 9.74667 31.2806 9.48C32.694 9.21333 34.0006 9.08 35.2006 9.08C38.2406 9.08 40.4673 9.70667 41.8806 10.96C43.294 12.2133 44.0006 14.0933 44.0006 16.6V24.84ZM34.4406 27.16C35.8806 27.16 37.0006 26.48 37.8006 25.12V21.36H36.2406C34.8006 21.36 33.7206 21.6133 33.0006 22.12C32.3073 22.6267 31.9606 23.4133 31.9606 24.48C31.9606 25.3333 32.174 26 32.6006 26.48C33.054 26.9333 33.6673 27.16 34.4406 27.16ZM54.2841 31.68C52.4441 31.68 51.0041 31.16 49.9641 30.12C48.9507 29.0533 48.4441 27.5467 48.4441 25.6V1.32L54.7641 0.639997V25.36C54.7641 26.24 55.1241 26.68 55.8441 26.68C56.2174 26.68 56.5641 26.6133 56.8841 26.48L58.1241 30.96C56.9774 31.44 55.6974 31.68 54.2841 31.68ZM69.5238 9.08C72.7771 9.08 75.3238 10.08 77.1638 12.08C79.0038 14.0533 79.9238 16.8267 79.9238 20.4C79.9238 22.6667 79.4971 24.6533 78.6438 26.36C77.8171 28.04 76.6171 29.3467 75.0438 30.28C73.4971 31.2133 71.6571 31.68 69.5238 31.68C66.2971 31.68 63.7504 30.6933 61.8838 28.72C60.0438 26.72 59.1238 23.9333 59.1238 20.36C59.1238 18.0933 59.5371 16.12 60.3638 14.44C61.2171 12.7333 62.4171 11.4133 63.9638 10.48C65.5371 9.54667 67.3904 9.08 69.5238 9.08ZM69.5238 13.72C68.2438 13.72 67.2838 14.2667 66.6438 15.36C66.0038 16.4267 65.6838 18.0933 65.6838 20.36C65.6838 22.68 65.9904 24.3733 66.6038 25.44C67.2438 26.5067 68.2171 27.04 69.5238 27.04C70.8038 27.04 71.7638 26.5067 72.4038 25.44C73.0438 24.3467 73.3638 22.6667 73.3638 20.4C73.3638 18.08 73.0438 16.3867 72.4038 15.32C71.7904 14.2533 70.8304 13.72 69.5238 13.72ZM93.4031 5.32C92.4965 5.32 91.8431 5.53333 91.4431 5.96C91.0431 6.38667 90.8431 7.10667 90.8431 8.12V9.76H95.8431L95.1631 14.16H90.8431V31H84.5231V14.16H81.3231V9.76H84.5231V7.88C84.5231 5.74667 85.2165 4.01333 86.6031 2.68C88.0165 1.32 90.0298 0.639997 92.6431 0.639997C94.7498 0.639997 96.6831 1.09333 98.4431 2L96.7231 6.12C95.6565 5.58667 94.5498 5.32 93.4031 5.32Z" fill="#141414"/>
</svg>
