<svg width="48" height="48" viewBox="0 0 48 48" fill="none" xmlns="http://www.w3.org/2000/svg">
<path d="M26.55 44C25.7833 44 25.225 43.75 24.875 43.25C24.525 42.75 24.4833 42.1333 24.75 41.4L32.1 21.9C32.3 21.3667 32.6667 20.9167 33.2 20.55C33.7333 20.1833 34.2833 20 34.85 20C35.4167 20 35.975 20.1833 36.525 20.55C37.075 20.9167 37.45 21.3667 37.65 21.9L45.15 41.2C45.45 41.9667 45.4167 42.625 45.05 43.175C44.6833 43.725 44.0667 44 43.2 44C42.8333 44 42.4833 43.8833 42.15 43.65C41.8167 43.4167 41.5833 43.1167 41.45 42.75L39.8 37.7H30.2L28.3 42.8C28.1667 43.1333 27.9333 43.4167 27.6 43.65C27.2667 43.8833 26.9167 44 26.55 44ZM31.3 34.2H38.4L34.9 24.5H34.8L31.3 34.2ZM14.45 17.1C14.95 17.9667 15.5 18.8083 16.1 19.625C16.7 20.4417 17.35 21.2833 18.05 22.15C19.55 20.5833 20.8 18.9583 21.8 17.275C22.8 15.5917 23.65 13.8333 24.35 12H4C3.43333 12 2.95833 11.8083 2.575 11.425C2.19167 11.0417 2 10.5667 2 10C2 9.43333 2.19167 8.95833 2.575 8.575C2.95833 8.19167 3.43333 8 4 8H16V6C16 5.43333 16.1917 4.95833 16.575 4.575C16.9583 4.19167 17.4333 4 18 4C18.5667 4 19.0417 4.19167 19.425 4.575C19.8083 4.95833 20 5.43333 20 6V8H32C32.5667 8 33.0417 8.19167 33.425 8.575C33.8083 8.95833 34 9.43333 34 10C34 10.5667 33.8083 11.0417 33.425 11.425C33.0417 11.8083 32.5667 12 32 12H28.35C27.6167 14.3 26.6417 16.5583 25.425 18.775C24.2083 20.9917 22.7167 23.1 20.95 25.1L25.85 30.05L24.35 34.1L18 28L9.35 36.65C8.98333 37.0167 8.53333 37.2 8 37.2C7.46667 37.2 7.01667 37 6.65 36.6C6.25 36.2333 6.05 35.7833 6.05 35.25C6.05 34.7167 6.25 34.25 6.65 33.85L15.45 25.05C14.5833 24.0167 13.7667 22.975 13 21.925C12.2333 20.875 11.5333 19.8 10.9 18.7C10.5 17.9667 10.4667 17.3333 10.8 16.8C11.1333 16.2667 11.7333 16 12.6 16C12.9667 16 13.325 16.1083 13.675 16.325C14.025 16.5417 14.2833 16.8 14.45 17.1Z" fill="url(#paint0_linear_5_2)"/>
<defs>
<linearGradient id="paint0_linear_5_2" x1="23.6763" y1="4" x2="23.6763" y2="44" gradientUnits="userSpaceOnUse">
<stop stop-color="#F3EB5A"/>
<stop offset="1" stop-color="#F4F690"/>
</linearGradient>
</defs>
</svg>
